<?xml version="1.0" encoding="utf-8"?>
<!-- Generator: Adobe Illustrator 19.2.0, SVG Export Plug-In . SVG Version: 6.00 Build 0)  -->
<svg version="1.1" id="Layer_1" xmlns="http://www.w3.org/2000/svg" xmlns:xlink="http://www.w3.org/1999/xlink" x="0px" y="0px"
	 viewBox="0 0 155.5 144" style="enable-background:new 0 0 155.5 144;" xml:space="preserve">
<path id="fb" d="M38.9,68.1h14.4v75.4h31V68.1h19.3l5.3-22.8H84.3v-8.5c-1.6-6.3,2.2-12.8,8.5-14.5c1.6-0.4,3.3-0.5,5-0.2
	c4.8,0.5,9.3,2.4,13.2,5.3L116.6,6c-8-3-16.3-4.9-24.8-5.5c-7.9-0.2-15.8,1.2-23.2,4.2c-5.3,2.7-9.5,7-12,12.4
	c-2.5,6.1-3.7,12.6-3.3,19.2v9H38.9L38.9,68.1L38.9,68.1z"/>
</svg>
