<?xml version="1.0" encoding="utf-8"?>
<!-- Generator: Adobe Illustrator 19.2.0, SVG Export Plug-In . SVG Version: 6.00 Build 0)  -->
<svg version="1.1" id="Layer_1" xmlns="http://www.w3.org/2000/svg" xmlns:xlink="http://www.w3.org/1999/xlink" x="0px" y="0px"
	 viewBox="0 0 155.5 144" style="enable-background:new 0 0 155.5 144;" xml:space="preserve">
<style type="text/css">
	.st0{fill:#010101;}
</style>
<g>
	<path class="st0" d="M77.7,13c19.2,0,21.5,0.1,29.1,0.4c7,0.3,10.8,1.5,13.4,2.5c3.4,1.3,5.8,2.9,8.3,5.4c2.5,2.5,4.1,4.9,5.4,8.3
		c1,2.5,2.2,6.3,2.5,13.4c0.3,7.6,0.4,9.9,0.4,29.1s-0.1,21.5-0.4,29.1c-0.3,7-1.5,10.8-2.5,13.4c-1.3,3.4-2.9,5.8-5.4,8.3
		c-2.5,2.5-4.9,4.1-8.3,5.4c-2.5,1-6.3,2.2-13.4,2.5c-7.6,0.3-9.9,0.4-29.1,0.4s-21.5-0.1-29.1-0.4c-7-0.3-10.8-1.5-13.4-2.5
		c-3.4-1.3-5.8-2.9-8.3-5.4c-2.5-2.5-4.1-4.9-5.4-8.3c-1-2.5-2.2-6.3-2.5-13.4c-0.3-7.6-0.4-9.9-0.4-29.1s0.1-21.5,0.4-29.1
		c0.3-7,1.5-10.8,2.5-13.4c1.3-3.4,2.9-5.8,5.4-8.3c2.5-2.5,4.9-4.1,8.3-5.4c2.5-1,6.3-2.2,13.4-2.5C56.2,13.1,58.5,13,77.7,13
		 M77.7,0c-19.5,0-22,0.1-29.7,0.4C40.4,0.8,35.2,2,30.6,3.8c-4.7,1.8-8.7,4.3-12.7,8.3c-4,4-6.5,8-8.3,12.7
		c-1.8,4.6-3,9.8-3.3,17.5C5.8,50,5.8,52.5,5.8,72c0,19.5,0.1,22,0.4,29.7c0.3,7.7,1.6,12.9,3.3,17.5c1.8,4.7,4.3,8.7,8.3,12.7
		c4,4,8,6.5,12.7,8.3c4.6,1.8,9.8,3,17.5,3.3c7.7,0.4,10.1,0.4,29.7,0.4s22-0.1,29.7-0.4c7.7-0.3,12.9-1.6,17.5-3.3
		c4.7-1.8,8.7-4.3,12.7-8.3c4-4,6.5-8,8.3-12.7c1.8-4.6,3-9.8,3.3-17.5c0.4-7.7,0.4-10.1,0.4-29.7s-0.1-22-0.4-29.7
		c-0.3-7.7-1.6-12.9-3.3-17.5c-1.8-4.7-4.3-8.7-8.3-12.7c-4-4-8-6.5-12.7-8.3c-4.6-1.8-9.8-3-17.5-3.3C99.7,0.1,97.3,0,77.7,0
		L77.7,0z"/>
	<path class="st0" d="M77.7,35c-20.4,0-37,16.5-37,37s16.5,37,37,37s37-16.5,37-37S98.1,35,77.7,35z M77.7,96c-13.2,0-24-10.7-24-24
		s10.7-24,24-24s24,10.7,24,24S91,96,77.7,96z"/>
	<circle class="st0" cx="116.1" cy="33.6" r="8.6"/>
</g>
</svg>
