<svg xmlns="http://www.w3.org/2000/svg" width="314" height="314" viewBox="0 0 314.1 314.1"><path d="M293 78.5C249.6 3.4 153.6-22.3 78.5 21.1 3.4 64.4-22.3 160.4 21.1 235.5c43.4 75.1 139.4 100.8 214.5 57.5C310.6 249.6 336.4 153.6 293 78.5zM219.8 265.8c-60.1 34.7-136.9 14.1-171.6-46C13.6 159.8 34.2 82.9 94.2 48.3c60.1-34.7 136.9-14.1 171.6 46C300.5 154.3 279.9 231.1 219.8 265.8zM213.6 150.7l-82.2-47.9c-7.5-4.4-13.5-0.9-13.5 7.8l0.4 95.2c0 8.7 6.2 12.2 13.7 7.9l81.6-47.1C221 162.1 221 155 213.6 150.7z"/></svg>
