<?xml version="1.0" encoding="utf-8"?>
<!-- Generator: Adobe Illustrator 21.0.0, SVG Export Plug-In . SVG Version: 6.00 Build 0)  -->
<svg version="1.1" id="preloader" xmlns="http://www.w3.org/2000/svg" xmlns:xlink="http://www.w3.org/1999/xlink" x="0px" y="0px"
	 viewBox="0 0 1240 700" style="enable-background:new 0 0 1240 700;" xml:space="preserve">
<style type="text/css">
	.st0{opacity:0.6;fill-rule:evenodd;clip-rule:evenodd;fill:#A4832B;}
	.st1{fill-rule:evenodd;clip-rule:evenodd;fill:#A4832B;}
	.st2{opacity:0.3;fill-rule:evenodd;clip-rule:evenodd;fill:#A4832B;}
</style>
<g>
	<path class="st0" d="M620,306.5c-24,0-43.5,19.5-43.5,43.5c0,7.9,2.1,15.3,5.8,21.7l11.6-6.8c-2.6-4.4-4.1-9.6-4.1-15.1
		c0-16.6,13.4-30,30-30c0,0,0.1,0,0.1,0L620,306.5z"/>
	<path class="st1" d="M620,306.5l0.1,13.4c16.4,0.1,29.7,13.5,29.7,30c0,5.4-1.4,10.5-4,14.9l11.9,6.9c3.7-6.4,5.8-13.8,5.8-21.7
		C663.5,326,644,306.5,620,306.5z"/>
	<path class="st2" d="M657.7,371.8l-11.9-6.8c-5.2,8.9-14.9,14.9-25.9,14.9c-11,0-20.6-5.9-25.8-14.8l-11.6,6.7
		c7.5,13,21.6,21.7,37.7,21.7C636.1,393.5,650.1,384.8,657.7,371.8z"/>
</g>
</svg>
