<?xml version="1.0" encoding="utf-8"?>
<!-- Generator: Adobe Illustrator 19.2.0, SVG Export Plug-In . SVG Version: 6.00 Build 0)  -->
<svg version="1.1" id="Layer_1" xmlns="http://www.w3.org/2000/svg" xmlns:xlink="http://www.w3.org/1999/xlink" x="0px" y="0px"
	 viewBox="0 0 155.5 144" style="enable-background:new 0 0 155.5 144;" xml:space="preserve">
<path id="Vector_Logo" d="M155.5,24.3c-6.6,2.7-13.6,4.5-20.7,5.3c7.3-5.3,12.7-12.7,15.5-21.2c-6.1,3.7-13.4,9.2-20.7,10.6
	c-5.4-6.5-13.4-10.4-21.9-10.6C90,8.5,77.7,22.5,77.7,40.2c-0.3,3.5-0.3,7.1,0,10.6c-26.5-1.3-51.6-17.7-67.3-37.1
	C7.3,18.5,5.5,24,5.2,29.6c0.5,10.8,6.3,20.8,15.5,26.5c-5,0.2-10-0.8-14.5-3v0.4c0,15.5,10.3,31.4,24.8,34.3
	c-3.4,0.4-6.9,0.4-10.3,0c-1.7,0.2-3.5,0.2-5.2,0c4.8,12.9,17.3,21.4,31.1,21.2c-11.2,8.5-25,13-39,12.5c-2.6-0.5-5.1-1.1-7.6-1.9
	c14.4,9.9,31.4,15.4,48.9,15.9c58.6,0,90.7-48.9,90.7-91.3c0-1.4,0-2.8-0.1-4.2C145.8,35.9,151.2,30.5,155.5,24.3z"/>
</svg>
